    <svg
      width="42"
      height="42"
      viewBox="0 0 42 42"
      fill="none"
      xmlns="http://www.w3.org/2000/svg"
    >
      <path
        d="M21.0606 0.0013232C20.5267 -0.000198228 20.4288 0.0985619 20.2786 0.15545C20.1285 0.214984 20.0074 0.267242 19.8784 0.330745C19.6198 0.457751 19.3426 0.611879 19.0308 0.790482C18.407 1.14769 17.657 1.60418 16.9102 2.06604C16.1635 2.52776 15.422 2.99556 14.8456 3.35277C14.5572 3.53137 14.3078 3.68219 14.1297 3.78803C14.0702 3.8211 14.0193 3.84756 13.9663 3.87534C14.0748 3.84227 14.1383 3.82243 13.9685 3.88857C13.7952 3.96002 13.8607 3.92826 13.9663 3.87534C13.9068 3.89519 13.8506 3.91503 13.7811 3.92826C13.58 3.98118 13.2963 4.04469 12.9656 4.1201C12.3047 4.27158 11.4529 4.46143 10.5972 4.65789C9.7414 4.85435 8.8855 5.05809 8.1906 5.24265C7.84332 5.33526 7.53837 5.42059 7.26544 5.51254C7.12917 5.55884 7.00084 5.6025 6.85399 5.66732C6.70714 5.73347 6.57021 5.73347 6.19177 6.10722C5.8134 6.4836 5.8134 6.62053 5.74791 6.76672C5.68176 6.91291 5.63678 7.04058 5.59048 7.17685C5.49721 7.44938 5.40989 7.75367 5.3153 8.10042C5.12677 8.79426 4.91774 9.6489 4.71665 10.5035C4.51489 11.3581 4.31975 12.2085 4.16497 12.8687C4.08757 13.1988 4.01944 13.4819 3.9685 13.6832C3.94866 13.7533 3.92881 13.8109 3.91558 13.8684C3.9685 13.7632 4.0029 13.6971 3.92881 13.8704C3.85803 14.0397 3.88251 13.9762 3.91558 13.8684C3.88912 13.9213 3.86266 13.9716 3.82761 14.0312C3.72044 14.2084 3.5683 14.4572 3.38771 14.7444C3.0272 15.3185 2.55503 16.0575 2.08888 16.8015C1.62252 17.5455 1.1618 18.2925 0.801085 18.9145C0.620498 19.2254 0.465048 19.5019 0.336057 19.7595C0.269908 19.8885 0.216327 20.0088 0.158777 20.1583C0.099243 20.3078 0.00200349 20.4057 1.90211e-05 20.9394C-0.00156856 21.4732 0.0965971 21.5711 0.154147 21.7213C0.213681 21.8715 0.265939 21.9925 0.329442 22.1215C0.456448 22.3802 0.610575 22.6573 0.789178 22.9692C1.14638 23.5929 1.60281 24.3429 2.0646 25.0897C2.52632 25.8365 2.99419 26.5779 3.3514 27.1543C3.53 27.4427 3.68082 27.6921 3.78666 27.8702C3.81973 27.9297 3.84619 27.9807 3.87398 28.0329C3.8409 27.9251 3.82106 27.8616 3.88721 28.031C3.95865 28.2043 3.92689 28.1388 3.87398 28.0329C3.89382 28.0925 3.91367 28.1487 3.9269 28.2188C3.97981 28.4199 4.04332 28.7037 4.11873 29.0344C4.27021 29.6952 4.46006 30.547 4.65652 31.4028C4.85298 32.2585 5.05672 33.1144 5.24128 33.8093C5.33389 34.1566 5.41988 34.4616 5.51117 34.7345C5.55747 34.8708 5.60179 34.9991 5.66662 35.1459C5.73277 35.2928 5.73277 35.4297 6.10651 35.8082C6.4829 36.1865 6.61982 36.1865 6.76601 36.252C6.9122 36.3182 7.03987 36.3632 7.17614 36.4095C7.44867 36.5027 7.75296 36.59 8.09978 36.6846C8.79362 36.8732 9.64826 37.0822 10.5028 37.2833C11.3574 37.485 12.2078 37.6802 12.8681 37.835C13.1982 37.9124 13.4813 37.9805 13.6824 38.0314C13.7526 38.0513 13.8101 38.0711 13.8677 38.0844C13.7625 38.0314 13.6963 37.997 13.8697 38.0711C14.039 38.1419 13.9755 38.1174 13.8677 38.0844C13.9206 38.1108 13.9708 38.1373 14.0304 38.1723C14.2077 38.2795 14.4564 38.4316 14.7437 38.6122C15.3178 38.9727 16.0567 39.4449 16.8008 39.9111C17.5448 40.3774 18.2918 40.8382 18.9138 41.1989C19.2247 41.3795 19.5012 41.535 19.7587 41.6639C19.8877 41.7301 20.0081 41.7837 20.1576 41.8412C20.3071 41.9008 20.405 41.998 20.9387 42C21.4725 42.0016 21.5704 41.9034 21.7206 41.8459C21.8708 41.7863 21.9918 41.7341 22.1208 41.6706C22.3795 41.5436 22.6566 41.3894 22.9684 41.2108C23.5922 40.8536 24.3421 40.3972 25.0889 39.9354C25.8356 39.4737 26.5772 39.0059 27.1536 38.6487C27.442 38.4701 27.6914 38.3192 27.8694 38.2127C27.929 38.1797 27.9799 38.1532 28.0322 38.1254C27.9243 38.1585 27.8608 38.1783 28.0302 38.1122C28.2036 38.0408 28.1381 38.0725 28.0322 38.1254C28.0917 38.1056 28.1479 38.0857 28.218 38.0725C28.4191 38.0196 28.7029 37.9561 29.0336 37.8807C29.6944 37.7292 30.5463 37.5393 31.4021 37.3429C32.2578 37.1464 33.1137 36.9427 33.8086 36.7581C34.1559 36.6655 34.4609 36.5802 34.7338 36.4882C34.8701 36.4419 34.9984 36.3976 35.1452 36.3335C35.2921 36.2673 35.429 36.2673 35.8075 35.8936C36.1859 35.5172 36.1859 35.3802 36.2514 35.2341C36.3175 35.0879 36.3625 34.9602 36.4088 34.8239C36.5021 34.5514 36.5894 34.2471 36.684 33.9003C36.8725 33.2065 37.0816 32.3517 37.2826 31.4972C37.4844 30.6426 37.6795 29.7922 37.8343 29.1319C37.9117 28.8018 37.9799 28.5187 38.0308 28.3176C38.0506 28.2475 38.0705 28.1899 38.0837 28.1324C38.0308 28.2375 37.9964 28.3037 38.0705 28.1303C38.1413 27.961 38.1234 28.0245 38.0837 28.1324C38.1102 28.0794 38.1366 28.0292 38.1717 27.9696C38.2789 27.7923 38.431 27.5436 38.6116 27.2564C38.9721 26.6822 39.4443 25.9433 39.9105 25.1992C40.3768 24.4552 40.8376 23.7082 41.1983 23.0862C41.3789 22.7753 41.5344 22.4988 41.6627 22.2413C41.7289 22.1123 41.7824 21.9919 41.84 21.8424C41.8995 21.6929 41.9968 21.595 41.9987 21.0613C42.0003 20.5275 41.9022 20.4296 41.8446 20.2795C41.7851 20.1293 41.7328 20.0083 41.6693 19.8793C41.5423 19.6206 41.3882 19.3435 41.2096 19.0317C40.8524 18.4079 40.396 17.658 39.9341 16.9112C39.4724 16.1645 39.0045 15.4229 38.6473 14.8464C38.4687 14.558 38.3179 14.3086 38.212 14.1306C38.179 14.0711 38.1525 14.0202 38.1247 13.9673C38.1578 14.0757 38.1776 14.1392 38.1115 13.9694C38.0401 13.7961 38.0718 13.8615 38.1247 13.9673C38.1049 13.9077 38.085 13.8515 38.0718 13.7814C38.0189 13.5803 37.9554 13.2965 37.88 12.9658C37.7285 12.3049 37.5386 11.4531 37.3422 10.5973C37.1457 9.74151 36.942 8.88574 36.7574 8.19085C36.6648 7.84356 36.5795 7.53862 36.4875 7.26555C36.4412 7.12929 36.3976 7.00096 36.3321 6.85411C36.2659 6.70725 36.2659 6.57033 35.8922 6.19189C35.5158 5.81351 35.3789 5.81351 35.2327 5.74803C35.0865 5.68188 34.9582 5.6369 34.8226 5.59059C34.55 5.49732 34.2457 5.41 33.899 5.31541C33.2052 5.12689 32.3505 4.91785 31.4959 4.71676C30.6413 4.51501 29.7909 4.31987 29.1307 4.16508C28.8006 4.08768 28.5175 4.01955 28.3162 3.96862C28.2467 3.94877 28.1885 3.92893 28.131 3.9157C28.2362 3.96861 28.3017 4.00301 28.1285 3.92893C27.9592 3.85815 28.0227 3.88262 28.131 3.9157C28.0781 3.88924 28.0271 3.86278 27.9683 3.82706C27.791 3.71989 27.5423 3.56775 27.255 3.38716C26.6809 3.02665 25.9419 2.55448 25.1979 2.08826C24.4539 1.62191 23.7069 1.16118 23.0849 0.800404C22.774 0.619817 22.4975 0.464366 22.24 0.336037C22.111 0.269888 21.9906 0.216308 21.8411 0.158758C21.6916 0.099224 21.5942 0.00330767 21.0606 0.0013232ZM21.0473 3.6767C21.1466 3.72962 21.2074 3.76269 21.3258 3.83149C21.8775 4.15165 22.6081 4.601 23.3385 5.05875C24.0691 5.5165 24.8021 5.98325 25.3913 6.35316C25.6856 6.53838 25.9443 6.69846 26.1557 6.82679C26.3674 6.95445 26.3978 7.00274 26.7775 7.1615C27.1572 7.32026 27.2141 7.3057 27.4535 7.36656C27.6929 7.4261 27.9893 7.49952 28.3282 7.5789C29.0054 7.73766 29.8522 7.93081 30.6912 8.1286C31.5303 8.32639 32.363 8.52814 32.9783 8.6955C33.1106 8.72857 33.1747 8.75503 33.2839 8.78811C33.3169 8.89725 33.3368 8.96142 33.3745 9.09438C33.5385 9.71089 33.735 10.5446 33.9282 11.3848C34.1213 12.225 34.3085 13.0728 34.464 13.7509C34.5414 14.0903 34.6121 14.3866 34.671 14.6268C34.7305 14.8669 34.7173 14.9232 34.8721 15.304C35.0282 15.6843 35.0765 15.7154 35.2029 15.9278C35.3292 16.1401 35.4886 16.3994 35.6719 16.695C36.0383 17.2863 36.5008 18.0221 36.9542 18.7553C37.4073 19.4885 37.8529 20.2217 38.1696 20.7751C38.2377 20.8942 38.2688 20.955 38.323 21.0549C38.2701 21.1542 38.237 21.215 38.1683 21.3334C37.8481 21.8851 37.3987 22.6156 36.9409 23.3461C36.4832 24.0767 36.0164 24.8097 35.6465 25.3988C35.4613 25.6932 35.3012 25.9518 35.1729 26.1633C35.0452 26.375 34.9969 26.4054 34.8382 26.7851C34.6794 27.1648 34.694 27.2217 34.6331 27.4611C34.5736 27.7005 34.5002 27.9969 34.4208 28.3357C34.262 29.0129 34.0689 29.8596 33.8711 30.6987C33.6733 31.5378 33.4715 32.3705 33.3042 32.9858C33.2711 33.1187 33.2446 33.1822 33.2116 33.2914C33.1024 33.3245 33.0383 33.3443 32.9053 33.382C32.2888 33.5461 31.4552 33.7432 30.615 33.9357C29.7747 34.1288 28.9269 34.316 28.2487 34.4715C27.9094 34.5489 27.613 34.6197 27.3729 34.6792C27.1327 34.7387 27.0765 34.7255 26.6957 34.8803C26.3153 35.0364 26.2842 35.0847 26.0719 35.211C25.8596 35.3374 25.6003 35.4968 25.3047 35.68C24.7133 36.0465 23.9776 36.5089 23.2444 36.9623C22.5112 37.4161 21.778 37.8612 21.2246 38.1778C21.1055 38.246 21.0446 38.2764 20.9447 38.3313C20.8455 38.2784 20.7847 38.2453 20.6663 38.1765C20.1146 37.8563 19.3842 37.407 18.6536 36.9493C17.9231 36.4916 17.1901 36.0248 16.6009 35.6549C16.3066 35.4697 16.0479 35.3096 15.8364 35.1813C15.6247 35.0536 15.5943 35.0053 15.2146 34.8466C14.8349 34.6878 14.778 34.7023 14.5386 34.6415C14.2991 34.582 14.0028 34.5085 13.664 34.4292C12.9867 34.2704 12.14 34.0772 11.3009 33.8795C10.4619 33.6817 9.62921 33.4799 9.01396 33.3126C8.881 33.2795 8.8175 33.253 8.70835 33.2199C8.67528 33.1108 8.65543 33.0466 8.61773 32.9137C8.45368 32.2978 8.25721 31.4636 8.06406 30.6233C7.8709 29.7831 7.6837 28.9352 7.52825 28.2571C7.45086 27.9178 7.38008 27.6214 7.32054 27.3812C7.26101 27.1411 7.27424 27.0849 7.11945 26.7041C6.96334 26.3237 6.91505 26.2926 6.7887 26.0803C6.66236 25.8679 6.50294 25.6086 6.31971 25.313C5.95324 24.7216 5.49086 23.9859 5.03741 23.2527C4.58362 22.5195 4.13857 21.7863 3.82192 21.2329C3.75378 21.1139 3.72335 21.053 3.66845 20.9531C3.72137 20.8539 3.75444 20.793 3.82324 20.6746C4.1434 20.123 4.59282 19.3924 5.05057 18.6619C5.50832 17.9314 5.97507 17.1984 6.34491 16.6092C6.53013 16.3148 6.69021 16.0562 6.81854 15.8448C6.9462 15.6331 6.99449 15.6027 7.15325 15.223C7.31201 14.8433 7.29746 14.787 7.35831 14.547C7.41785 14.3075 7.49127 14.0112 7.57065 13.6723C7.72941 12.9951 7.92257 12.1484 8.12035 11.3093C8.31814 10.4702 8.51989 9.63746 8.68725 9.02221C8.72032 8.88991 8.74678 8.82575 8.77986 8.7166C8.889 8.68353 8.95317 8.66368 9.08613 8.62598C9.70264 8.46193 10.5362 8.2648 11.3764 8.07231C12.2166 7.87915 13.0645 7.69195 13.7426 7.5365C14.082 7.45911 14.3783 7.38833 14.6185 7.32879C14.8586 7.26926 14.9149 7.28249 15.2957 7.1277C15.676 6.97159 15.7071 6.9233 15.9195 6.79695C16.1318 6.67061 16.3911 6.51119 16.6867 6.32796C17.2781 5.96149 18.0138 5.49904 18.747 5.04559C19.4802 4.59247 20.2134 4.14682 20.7668 3.83017C20.8859 3.76203 20.9475 3.7316 21.0473 3.6767ZM28.5617 13.5067C28.3322 13.52 28.1075 13.5783 27.9006 13.6785C27.6936 13.7786 27.5084 13.9185 27.3555 14.0902L18.8234 23.6656L15.1324 20.5155C14.7793 20.2142 14.3209 20.0655 13.8582 20.102C13.3955 20.1386 12.9662 20.3576 12.6649 20.7106C12.5156 20.8855 12.4023 21.088 12.3314 21.3066C12.2604 21.5253 12.2332 21.7557 12.2513 21.9849C12.2695 22.214 12.3325 22.4374 12.437 22.6421C12.5414 22.8469 12.6852 23.0291 12.86 23.1783L17.8543 27.441C18.2025 27.7381 18.6532 27.8871 19.1099 27.8559C19.5665 27.8247 19.9928 27.616 20.2974 27.2743L29.9694 16.4194C30.2781 16.0728 30.4365 15.6177 30.4097 15.1542C30.3829 14.6908 30.1732 14.257 29.8265 13.9483C29.48 13.6395 29.0251 13.48 28.5617 13.5067Z"
        fill="#E50E00"
      />
    </svg>